<?xml version="1.0" standalone="no"?>
<!DOCTYPE svg PUBLIC "-//W3C//DTD SVG 20010904//EN"
 "http://www.w3.org/TR/2001/REC-SVG-20010904/DTD/svg10.dtd">
<svg version="1.0" xmlns="http://www.w3.org/2000/svg"
 width="256.000000pt" height="256.000000pt" viewBox="0 0 256.000000 256.000000"
 preserveAspectRatio="xMidYMid meet">
<metadata>
Created by potrace 1.14, written by Peter Selinger 2001-2017
</metadata>
<g transform="translate(0.000000,256.000000) scale(0.100000,-0.100000)"
fill="#000000" stroke="none">
<path d="M1109 2506 c-2 -2 -42 -7 -89 -10 -47 -3 -96 -8 -110 -11 -13 -2 -42
-7 -65 -10 -175 -25 -331 -100 -440 -209 -137 -137 -199 -309 -231 -636 -5
-59 -6 -459 0 -525 6 -69 18 -169 23 -190 13 -55 26 -123 27 -147 0 -14 4 -24
8 -22 4 3 10 -8 14 -23 10 -41 62 -141 100 -194 18 -25 30 -50 26 -54 -4 -5
-2 -5 5 -2 6 4 20 -3 30 -15 10 -13 41 -39 68 -57 28 -19 53 -40 57 -45 4 -6
8 -8 8 -4 0 4 17 -1 37 -12 44 -22 92 -42 112 -46 52 -10 64 -16 52 -23 -8 -5
-9 -11 -3 -15 5 -3 12 1 16 9 5 14 11 14 51 0 11 -4 27 -9 35 -10 20 -3 137
-17 175 -21 17 -1 30 -3 30 -4 0 -1 37 -2 82 -3 45 -1 85 -5 88 -9 4 -4 16 -3
26 3 12 6 19 6 19 0 0 -6 11 -6 30 -1 18 5 32 5 35 -1 4 -5 11 -9 16 -9 6 0 7
6 3 13 -5 8 -2 8 9 -2 9 -7 17 -10 17 -5 0 12 91 11 109 0 10 -6 12 -5 7 2 -5
8 10 11 49 9 30 -1 55 0 55 3 0 3 24 6 54 5 30 0 52 4 49 9 -3 5 0 6 8 4 8 -3
13 -11 11 -17 -1 -7 2 -10 8 -6 6 3 8 11 5 16 -6 9 4 10 67 12 15 1 24 5 21
10 -3 6 5 8 21 5 14 -3 26 -2 26 2 0 8 99 36 113 32 4 -1 7 2 7 8 0 5 7 7 15
4 8 -4 15 -2 15 3 0 14 49 35 62 27 6 -4 8 -2 4 4 -3 6 2 13 13 17 10 3 38 21
62 40 24 18 47 31 53 28 5 -3 6 -1 3 4 -8 13 27 46 37 36 4 -4 4 1 0 12 -6 15
-4 17 10 12 9 -4 15 -3 12 1 -6 10 48 94 56 86 3 -3 5 3 5 13 -1 10 3 17 9 16
8 -1 10 6 6 19 -4 16 -2 19 8 13 8 -5 11 -4 7 2 -8 13 14 84 24 78 4 -3 5 4 2
15 -3 12 0 20 6 20 7 0 10 4 7 8 -3 5 0 26 6 48 13 50 21 90 32 184 15 114 18
169 17 365 0 255 -6 327 -37 488 -37 190 -96 310 -204 417 -41 41 -100 88
-130 104 -58 31 -199 82 -247 90 -15 3 -57 10 -93 15 -36 6 -81 13 -100 16
-42 7 -525 17 -531 11z"/>
<path d="M435 360 c3 -5 8 -10 11 -10 2 0 4 5 4 10 0 6 -5 10 -11 10 -5 0 -7
-4 -4 -10z"/>
<path d="M2126 362 c-3 -5 1 -9 9 -9 8 0 12 4 9 9 -3 4 -7 8 -9 8 -2 0 -6 -4
-9 -8z"/>
<path d="M2040 320 c-9 -6 -10 -10 -3 -10 6 0 15 5 18 10 8 12 4 12 -15 0z"/>
<path d="M530 281 c0 -6 4 -13 10 -16 6 -3 7 1 4 9 -7 18 -14 21 -14 7z"/>
<path d="M1920 260 c-12 -7 -10 -9 7 -7 12 0 19 5 17 9 -6 10 -6 10 -24 -2z"/>
<path d="M793 245 c0 -8 4 -12 9 -9 5 3 6 10 3 15 -9 13 -12 11 -12 -6z"/>
<path d="M735 221 c-3 -5 -2 -12 3 -15 5 -3 9 1 9 9 0 17 -3 19 -12 6z"/>
<path d="M935 220 c3 -5 8 -10 11 -10 2 0 4 5 4 10 0 6 -5 10 -11 10 -5 0 -7
-4 -4 -10z"/>
<path d="M1910 220 c0 -5 5 -10 11 -10 5 0 7 5 4 10 -3 6 -8 10 -11 10 -2 0
-4 -4 -4 -10z"/>
<path d="M1455 209 c-4 -6 -5 -12 -2 -15 2 -3 7 2 10 11 7 17 1 20 -8 4z"/>
<path d="M1510 206 c0 -2 7 -7 16 -10 8 -3 12 -2 9 4 -6 10 -25 14 -25 6z"/>
<path d="M1006 182 c-3 -5 1 -9 9 -9 8 0 12 4 9 9 -3 4 -7 8 -9 8 -2 0 -6 -4
-9 -8z"/>
<path d="M1054 182 c4 -3 14 -7 22 -8 9 -1 13 0 10 4 -4 3 -14 7 -22 8 -9 1
-13 0 -10 -4z"/>
<path d="M1215 180 c-3 -5 -1 -10 4 -10 6 0 11 5 11 10 0 6 -2 10 -4 10 -3 0
-8 -4 -11 -10z"/>
<path d="M1330 179 c0 -5 5 -7 10 -4 6 3 10 8 10 11 0 2 -4 4 -10 4 -5 0 -10
-5 -10 -11z"/>
<path d="M1570 179 c0 -5 5 -7 10 -4 6 3 10 8 10 11 0 2 -4 4 -10 4 -5 0 -10
-5 -10 -11z"/>
<path d="M1653 170 c-1 -11 2 -22 6 -24 4 -3 7 4 6 14 -2 27 -10 33 -12 10z"/>
<path d="M1470 176 c0 -2 8 -10 18 -17 15 -13 16 -12 3 4 -13 16 -21 21 -21
13z"/>
<path d="M1707 159 c7 -7 15 -10 18 -7 3 3 -2 9 -12 12 -14 6 -15 5 -6 -5z"/>
</g>
</svg>
